<svg width="24" height="24" viewBox="0 0 24 24" fill="none" xmlns="http://www.w3.org/2000/svg">
<g clip-path="url(#clip0_1_708)">
<path d="M5.25 0.5C5.3163 0.5 5.37989 0.526339 5.42678 0.573223C5.47366 0.620108 5.5 0.683696 5.5 0.75V1.5V2H6H18H18.5V1.5V0.75C18.5 0.683696 18.5263 0.620107 18.5732 0.573223C18.6201 0.52634 18.6837 0.5 18.75 0.5C18.8163 0.5 18.8799 0.52634 18.9268 0.573223C18.9737 0.620107 19 0.683696 19 0.75V1.5V2H19.5H21C21.663 2 22.2989 2.26339 22.7678 2.73223C23.2366 3.20107 23.5 3.83696 23.5 4.5V21C23.5 21.663 23.2366 22.2989 22.7678 22.7678C22.2989 23.2366 21.663 23.5 21 23.5H3C2.33696 23.5 1.70107 23.2366 1.23223 22.7678C0.763392 22.2989 0.5 21.663 0.5 21V4.5C0.5 3.83696 0.763392 3.20107 1.23223 2.73223C1.70107 2.26339 2.33696 2 3 2H4.5H5V1.5V0.75C5 0.683696 5.02634 0.620108 5.07322 0.573224C5.12011 0.526339 5.1837 0.5 5.25 0.5ZM3 2.5C2.46957 2.5 1.96086 2.71071 1.58579 3.08579C1.21071 3.46086 1 3.96957 1 4.5V21C1 21.5304 1.21071 22.0391 1.58579 22.4142C1.96086 22.7893 2.46957 23 3 23H21C21.5304 23 22.0391 22.7893 22.4142 22.4142C22.7893 22.0391 23 21.5304 23 21V4.5C23 3.96957 22.7893 3.46086 22.4142 3.08579C22.0391 2.71071 21.5304 2.5 21 2.5H3Z" stroke="#84D52C"/>
<path d="M5.25 0.5C5.3163 0.5 5.37989 0.526339 5.42678 0.573223C5.47366 0.620108 5.5 0.683696 5.5 0.75V1.5V2H6H18H18.5V1.5V0.75C18.5 0.683696 18.5263 0.620107 18.5732 0.573223C18.6201 0.52634 18.6837 0.5 18.75 0.5C18.8163 0.5 18.8799 0.52634 18.9268 0.573223C18.9737 0.620107 19 0.683696 19 0.75V1.5V2H19.5H21C21.663 2 22.2989 2.26339 22.7678 2.73223C23.2366 3.20107 23.5 3.83696 23.5 4.5V21C23.5 21.663 23.2366 22.2989 22.7678 22.7678C22.2989 23.2366 21.663 23.5 21 23.5H3C2.33696 23.5 1.70107 23.2366 1.23223 22.7678C0.763392 22.2989 0.5 21.663 0.5 21V4.5C0.5 3.83696 0.763392 3.20107 1.23223 2.73223C1.70107 2.26339 2.33696 2 3 2H4.5H5V1.5V0.75C5 0.683696 5.02634 0.620108 5.07322 0.573224C5.12011 0.526339 5.1837 0.5 5.25 0.5ZM3 2.5C2.46957 2.5 1.96086 2.71071 1.58579 3.08579C1.21071 3.46086 1 3.96957 1 4.5V21C1 21.5304 1.21071 22.0391 1.58579 22.4142C1.96086 22.7893 2.46957 23 3 23H21C21.5304 23 22.0391 22.7893 22.4142 22.4142C22.7893 22.0391 23 21.5304 23 21V4.5C23 3.96957 22.7893 3.46086 22.4142 3.08579C22.0391 2.71071 21.5304 2.5 21 2.5H3Z" stroke="url(#paint0_linear_1_708)" stroke-opacity="0.2"/>
<path d="M3.75 6C3.75 5.80109 3.82902 5.61032 3.96967 5.46967C4.11032 5.32902 4.30109 5.25 4.5 5.25H19.5C19.6989 5.25 19.8897 5.32902 20.0303 5.46967C20.171 5.61032 20.25 5.80109 20.25 6V7.5C20.25 7.69891 20.171 7.88968 20.0303 8.03033C19.8897 8.17098 19.6989 8.25 19.5 8.25H4.5C4.30109 8.25 4.11032 8.17098 3.96967 8.03033C3.82902 7.88968 3.75 7.69891 3.75 7.5V6ZM16.5 11.25C16.5 11.0511 16.579 10.8603 16.7197 10.7197C16.8603 10.579 17.0511 10.5 17.25 10.5H18.75C18.9489 10.5 19.1397 10.579 19.2803 10.7197C19.421 10.8603 19.5 11.0511 19.5 11.25V12.75C19.5 12.9489 19.421 13.1397 19.2803 13.2803C19.1397 13.421 18.9489 13.5 18.75 13.5H17.25C17.0511 13.5 16.8603 13.421 16.7197 13.2803C16.579 13.1397 16.5 12.9489 16.5 12.75V11.25ZM12 11.25C12 11.0511 12.079 10.8603 12.2197 10.7197C12.3603 10.579 12.5511 10.5 12.75 10.5H14.25C14.4489 10.5 14.6397 10.579 14.7803 10.7197C14.921 10.8603 15 11.0511 15 11.25V12.75C15 12.9489 14.921 13.1397 14.7803 13.2803C14.6397 13.421 14.4489 13.5 14.25 13.5H12.75C12.5511 13.5 12.3603 13.421 12.2197 13.2803C12.079 13.1397 12 12.9489 12 12.75V11.25ZM4.5 15.75C4.5 15.5511 4.57902 15.3603 4.71967 15.2197C4.86032 15.079 5.05109 15 5.25 15H6.75C6.94891 15 7.13968 15.079 7.28033 15.2197C7.42098 15.3603 7.5 15.5511 7.5 15.75V17.25C7.5 17.4489 7.42098 17.6397 7.28033 17.7803C7.13968 17.921 6.94891 18 6.75 18H5.25C5.05109 18 4.86032 17.921 4.71967 17.7803C4.57902 17.6397 4.5 17.4489 4.5 17.25V15.75ZM9 15.75C9 15.5511 9.07902 15.3603 9.21967 15.2197C9.36032 15.079 9.55109 15 9.75 15H11.25C11.4489 15 11.6397 15.079 11.7803 15.2197C11.921 15.3603 12 15.5511 12 15.75V17.25C12 17.4489 11.921 17.6397 11.7803 17.7803C11.6397 17.921 11.4489 18 11.25 18H9.75C9.55109 18 9.36032 17.921 9.21967 17.7803C9.07902 17.6397 9 17.4489 9 17.25V15.75Z" fill="#84D52C"/>
<path d="M3.75 6C3.75 5.80109 3.82902 5.61032 3.96967 5.46967C4.11032 5.32902 4.30109 5.25 4.5 5.25H19.5C19.6989 5.25 19.8897 5.32902 20.0303 5.46967C20.171 5.61032 20.25 5.80109 20.25 6V7.5C20.25 7.69891 20.171 7.88968 20.0303 8.03033C19.8897 8.17098 19.6989 8.25 19.5 8.25H4.5C4.30109 8.25 4.11032 8.17098 3.96967 8.03033C3.82902 7.88968 3.75 7.69891 3.75 7.5V6ZM16.5 11.25C16.5 11.0511 16.579 10.8603 16.7197 10.7197C16.8603 10.579 17.0511 10.5 17.25 10.5H18.75C18.9489 10.5 19.1397 10.579 19.2803 10.7197C19.421 10.8603 19.5 11.0511 19.5 11.25V12.75C19.5 12.9489 19.421 13.1397 19.2803 13.2803C19.1397 13.421 18.9489 13.5 18.75 13.5H17.25C17.0511 13.5 16.8603 13.421 16.7197 13.2803C16.579 13.1397 16.5 12.9489 16.5 12.75V11.25ZM12 11.25C12 11.0511 12.079 10.8603 12.2197 10.7197C12.3603 10.579 12.5511 10.5 12.75 10.5H14.25C14.4489 10.5 14.6397 10.579 14.7803 10.7197C14.921 10.8603 15 11.0511 15 11.25V12.75C15 12.9489 14.921 13.1397 14.7803 13.2803C14.6397 13.421 14.4489 13.5 14.25 13.5H12.75C12.5511 13.5 12.3603 13.421 12.2197 13.2803C12.079 13.1397 12 12.9489 12 12.75V11.25ZM4.5 15.75C4.5 15.5511 4.57902 15.3603 4.71967 15.2197C4.86032 15.079 5.05109 15 5.25 15H6.75C6.94891 15 7.13968 15.079 7.28033 15.2197C7.42098 15.3603 7.5 15.5511 7.5 15.75V17.25C7.5 17.4489 7.42098 17.6397 7.28033 17.7803C7.13968 17.921 6.94891 18 6.75 18H5.25C5.05109 18 4.86032 17.921 4.71967 17.7803C4.57902 17.6397 4.5 17.4489 4.5 17.25V15.75ZM9 15.75C9 15.5511 9.07902 15.3603 9.21967 15.2197C9.36032 15.079 9.55109 15 9.75 15H11.25C11.4489 15 11.6397 15.079 11.7803 15.2197C11.921 15.3603 12 15.5511 12 15.75V17.25C12 17.4489 11.921 17.6397 11.7803 17.7803C11.6397 17.921 11.4489 18 11.25 18H9.75C9.55109 18 9.36032 17.921 9.21967 17.7803C9.07902 17.6397 9 17.4489 9 17.25V15.75Z" fill="url(#paint1_linear_1_708)" fill-opacity="0.2"/>
</g>
<defs>
<linearGradient id="paint0_linear_1_708" x1="24" y1="2.97084e-06" x2="0.127085" y2="1.43691" gradientUnits="userSpaceOnUse">
<stop stop-color="#6BAB2B"/>
<stop offset="1" stop-color="#84D52C" stop-opacity="0"/>
</linearGradient>
<linearGradient id="paint1_linear_1_708" x1="20.25" y1="5.25" x2="3.87725" y2="6.52532" gradientUnits="userSpaceOnUse">
<stop stop-color="#6BAB2B"/>
<stop offset="1" stop-color="#84D52C" stop-opacity="0"/>
</linearGradient>
<clipPath id="clip0_1_708">
<rect width="24" height="24" fill="white"/>
</clipPath>
</defs>
</svg>
