<svg width="22" height="8" viewBox="0 0 22 8" fill="none" xmlns="http://www.w3.org/2000/svg">
<path d="M3.8548 7.62372C2.74843 7.62372 1.82762 7.28761 1.09237 6.61538C0.364123 5.93615 0 5.06436 0 4C0 2.92864 0.364123 2.05684 1.09237 1.38461C1.82061 0.712388 2.74142 0.376274 3.8548 0.376274C4.69508 0.376274 5.37081 0.57234 5.88198 0.964473C6.40016 1.3566 6.78529 1.83977 7.03737 2.41396L5.20976 3.26475C5.11873 2.98465 4.94717 2.74657 4.69508 2.55051C4.443 2.34744 4.1629 2.24591 3.8548 2.24591C3.35063 2.24591 2.94099 2.41396 2.62589 2.75008C2.31078 3.08619 2.15323 3.50283 2.15323 4C2.15323 4.49716 2.31078 4.91381 2.62589 5.24992C2.94099 5.58603 3.35063 5.75409 3.8548 5.75409C4.1629 5.75409 4.443 5.65606 4.69508 5.45999C4.94717 5.25692 5.11873 5.01534 5.20976 4.73525L7.03737 5.57553C6.92534 5.83462 6.78529 6.0762 6.61723 6.30027C6.44918 6.51735 6.2391 6.73092 5.98702 6.94099C5.73493 7.15106 5.42333 7.31912 5.0522 7.44516C4.68808 7.5642 4.28895 7.62372 3.8548 7.62372Z" fill="#84D52C"/>
<path d="M3.8548 7.62372C2.74843 7.62372 1.82762 7.28761 1.09237 6.61538C0.364123 5.93615 0 5.06436 0 4C0 2.92864 0.364123 2.05684 1.09237 1.38461C1.82061 0.712388 2.74142 0.376274 3.8548 0.376274C4.69508 0.376274 5.37081 0.57234 5.88198 0.964473C6.40016 1.3566 6.78529 1.83977 7.03737 2.41396L5.20976 3.26475C5.11873 2.98465 4.94717 2.74657 4.69508 2.55051C4.443 2.34744 4.1629 2.24591 3.8548 2.24591C3.35063 2.24591 2.94099 2.41396 2.62589 2.75008C2.31078 3.08619 2.15323 3.50283 2.15323 4C2.15323 4.49716 2.31078 4.91381 2.62589 5.24992C2.94099 5.58603 3.35063 5.75409 3.8548 5.75409C4.1629 5.75409 4.443 5.65606 4.69508 5.45999C4.94717 5.25692 5.11873 5.01534 5.20976 4.73525L7.03737 5.57553C6.92534 5.83462 6.78529 6.0762 6.61723 6.30027C6.44918 6.51735 6.2391 6.73092 5.98702 6.94099C5.73493 7.15106 5.42333 7.31912 5.0522 7.44516C4.68808 7.5642 4.28895 7.62372 3.8548 7.62372Z" fill="url(#paint0_linear_1_728)" fill-opacity="0.2"/>
<path d="M12.1029 7.49768H7.70189V0.491813H11.9558C12.628 0.491813 13.1427 0.673874 13.4998 1.038C13.857 1.40212 14.0355 1.81526 14.0355 2.27742C14.0355 2.70456 13.9235 3.06168 13.6994 3.34878C13.4753 3.62887 13.1882 3.80743 12.8381 3.88446C13.2233 3.94048 13.5419 4.12954 13.7939 4.45165C14.046 4.76676 14.1721 5.14838 14.1721 5.59654C14.1721 6.12171 13.9935 6.56986 13.6364 6.94099C13.2793 7.31211 12.7681 7.49768 12.1029 7.49768ZM11.4622 3.07568C11.5742 3.07568 11.6722 3.03717 11.7563 2.96015C11.8403 2.87612 11.8823 2.77458 11.8823 2.65554C11.8823 2.5365 11.8403 2.44197 11.7563 2.37195C11.6722 2.29492 11.5742 2.25641 11.4622 2.25641H9.8236V3.07568H11.4622ZM11.5252 5.73308C11.6792 5.73308 11.7983 5.69457 11.8823 5.61754C11.9733 5.53351 12.0188 5.42498 12.0188 5.29193C12.0188 5.16589 11.9733 5.06085 11.8823 4.97683C11.7913 4.8858 11.6722 4.84028 11.5252 4.84028H9.8236V5.73308H11.5252Z" fill="#84D52C"/>
<path d="M12.1029 7.49768H7.70189V0.491813H11.9558C12.628 0.491813 13.1427 0.673874 13.4998 1.038C13.857 1.40212 14.0355 1.81526 14.0355 2.27742C14.0355 2.70456 13.9235 3.06168 13.6994 3.34878C13.4753 3.62887 13.1882 3.80743 12.8381 3.88446C13.2233 3.94048 13.5419 4.12954 13.7939 4.45165C14.046 4.76676 14.1721 5.14838 14.1721 5.59654C14.1721 6.12171 13.9935 6.56986 13.6364 6.94099C13.2793 7.31211 12.7681 7.49768 12.1029 7.49768ZM11.4622 3.07568C11.5742 3.07568 11.6722 3.03717 11.7563 2.96015C11.8403 2.87612 11.8823 2.77458 11.8823 2.65554C11.8823 2.5365 11.8403 2.44197 11.7563 2.37195C11.6722 2.29492 11.5742 2.25641 11.4622 2.25641H9.8236V3.07568H11.4622ZM11.5252 5.73308C11.6792 5.73308 11.7983 5.69457 11.8823 5.61754C11.9733 5.53351 12.0188 5.42498 12.0188 5.29193C12.0188 5.16589 11.9733 5.06085 11.8823 4.97683C11.7913 4.8858 11.6722 4.84028 11.5252 4.84028H9.8236V5.73308H11.5252Z" fill="url(#paint1_linear_1_728)" fill-opacity="0.2"/>
<path d="M18.1662 7.49768H15.0256V0.491813H18.1557C19.2901 0.491813 20.2144 0.803418 20.9286 1.42663C21.6429 2.04284 22 2.89712 22 3.98949C22 5.08186 21.6429 5.93965 20.9286 6.56286C20.2144 7.18607 19.2936 7.49768 18.1662 7.49768ZM18.1557 5.64905C18.6669 5.64905 19.0765 5.488 19.3846 5.16589C19.6927 4.84378 19.8468 4.45165 19.8468 3.98949C19.8468 3.49233 19.7032 3.09319 19.4161 2.79209C19.129 2.49099 18.7124 2.34044 18.1662 2.34044H17.1474V5.64905H18.1557Z" fill="#84D52C"/>
<path d="M18.1662 7.49768H15.0256V0.491813H18.1557C19.2901 0.491813 20.2144 0.803418 20.9286 1.42663C21.6429 2.04284 22 2.89712 22 3.98949C22 5.08186 21.6429 5.93965 20.9286 6.56286C20.2144 7.18607 19.2936 7.49768 18.1662 7.49768ZM18.1557 5.64905C18.6669 5.64905 19.0765 5.488 19.3846 5.16589C19.6927 4.84378 19.8468 4.45165 19.8468 3.98949C19.8468 3.49233 19.7032 3.09319 19.4161 2.79209C19.129 2.49099 18.7124 2.34044 18.1662 2.34044H17.1474V5.64905H18.1557Z" fill="url(#paint2_linear_1_728)" fill-opacity="0.2"/>
<defs>
<linearGradient id="paint0_linear_1_728" x1="22" y1="0.376275" x2="0.746703" y2="4.25944" gradientUnits="userSpaceOnUse">
<stop stop-color="#6BAB2B"/>
<stop offset="1" stop-color="#84D52C" stop-opacity="0"/>
</linearGradient>
<linearGradient id="paint1_linear_1_728" x1="22" y1="0.376275" x2="0.746703" y2="4.25944" gradientUnits="userSpaceOnUse">
<stop stop-color="#6BAB2B"/>
<stop offset="1" stop-color="#84D52C" stop-opacity="0"/>
</linearGradient>
<linearGradient id="paint2_linear_1_728" x1="22" y1="0.376275" x2="0.746703" y2="4.25944" gradientUnits="userSpaceOnUse">
<stop stop-color="#6BAB2B"/>
<stop offset="1" stop-color="#84D52C" stop-opacity="0"/>
</linearGradient>
</defs>
</svg>
