<svg width="24" height="24" viewBox="0 0 24 24" fill="none" xmlns="http://www.w3.org/2000/svg">
<path d="M21.9178 16.6414C21.8299 16.5881 19.7356 15.33 17.1176 15.33C16.848 15.33 16.5805 15.3407 16.3159 15.3569C16.9303 15.0232 17.5492 14.6367 18.1219 14.1892C20.8871 12.0289 22.0492 8.51921 22.0972 8.37099C22.1415 8.2338 22.1122 8.08312 22.0191 7.97278C21.9255 7.86326 21.7839 7.81237 21.6394 7.82988C21.5198 7.84778 18.6845 8.29364 16.0893 10.6539C15.388 11.2919 14.7531 12.0004 14.1952 12.6964C14.4426 11.7307 14.6176 10.6475 14.6176 9.49313C14.6176 5.50022 12.5538 2.31018 12.4659 2.17662C12.3121 1.9421 11.9231 1.9421 11.7693 2.17662C11.6814 2.31018 9.61761 5.50022 9.61761 9.49313C9.61761 10.6475 9.79261 11.7307 10.04 12.6964C9.4821 12.0004 8.84722 11.2919 8.14586 10.6539C5.55063 8.29364 2.71537 7.84782 2.59576 7.82992C2.45377 7.81241 2.31014 7.8633 2.21611 7.97282C2.12295 8.08316 2.09365 8.2338 2.13799 8.37103C2.186 8.51921 3.3481 12.0289 6.1134 14.1892C6.68606 14.6367 7.305 15.0232 7.91933 15.3569C7.65477 15.3407 7.38723 15.33 7.11766 15.33C4.49966 15.33 2.40537 16.5881 2.31748 16.6414C2.19295 16.7176 2.11729 16.8532 2.11768 16.9989C2.11807 17.1451 2.19498 17.2803 2.3199 17.3552C2.40897 17.4085 4.53177 18.6654 7.11762 18.6654C7.69441 18.6654 8.26285 18.5825 8.80289 18.4566C7.91898 19.4983 7.94859 20.7079 7.95136 20.7679C7.95707 20.8962 8.02137 21.0151 8.12594 21.0896C8.19715 21.1404 8.28179 21.1669 8.36765 21.1669C8.40754 21.1669 8.44742 21.1612 8.48648 21.1498C8.54914 21.1311 10.04 20.6763 11.1826 19.3551C11.3874 19.1182 11.5526 18.8835 11.701 18.6531V21.5838C11.701 21.8143 11.8874 22.0007 12.1177 22.0007C12.348 22.0007 12.5344 21.8143 12.5344 21.5838V18.6531C12.6828 18.8836 12.8479 19.1183 13.0528 19.3551C14.1953 20.6763 15.6862 21.1311 15.7489 21.1498C15.7879 21.1612 15.8278 21.1669 15.8677 21.1669C15.9536 21.1669 16.0382 21.1404 16.1094 21.0896C16.214 21.0151 16.2783 20.8962 16.284 20.7679C16.2867 20.7079 16.3167 19.4951 15.4294 18.4527C15.9723 18.5808 16.5425 18.6654 17.1177 18.6654C19.7357 18.6654 21.83 17.4073 21.9179 17.354C22.042 17.2782 22.1177 17.1431 22.1177 16.9977C22.1177 16.8524 22.0419 16.7172 21.9178 16.6414ZM16.65 11.2711C18.2866 9.78217 20.0566 9.10914 21.0254 8.83026C20.5506 9.93851 19.454 12.0907 17.6091 13.532C16.0812 14.7258 14.1464 15.4925 12.9994 15.878C13.6801 14.7502 14.9936 12.778 16.65 11.2711ZM6.6261 13.532C4.78528 12.094 3.68666 9.94016 3.21056 8.83069C4.17939 9.10957 5.94899 9.7826 7.58516 11.2712C9.2396 12.776 10.5539 14.7495 11.2355 15.8777C10.0884 15.4921 8.15398 14.7254 6.6261 13.532ZM7.11762 17.8315C5.61208 17.8315 4.249 17.3466 3.45959 16.9953C4.24122 16.6451 5.59216 16.1638 7.11762 16.1638C8.62843 16.1638 10.1328 16.4745 11.0601 16.7119C10.1588 17.1822 8.63863 17.8315 7.11762 17.8315ZM10.5527 18.8095C10.0001 19.4479 9.34093 19.8555 8.86933 20.09C8.98367 19.6429 9.25019 19.0453 9.86745 18.5819C10.4933 18.1125 11.0003 17.7623 11.386 17.5095C11.2123 17.8938 10.9486 18.3515 10.5527 18.8095ZM12.1908 15.6023C12.1663 15.6438 12.1402 15.6873 12.1176 15.7262C12.095 15.6874 12.0689 15.6438 12.0444 15.6023C11.4542 14.4651 10.4509 12.1482 10.4509 9.49313C10.4509 6.73144 11.541 4.32192 12.1176 3.24012C12.6942 4.32192 13.7843 6.73144 13.7843 9.49313C13.7843 12.1482 12.781 14.4651 12.1908 15.6023ZM13.6826 18.8095C13.2895 18.3551 13.0262 17.8971 12.8521 17.5115C13.2378 17.764 13.7436 18.1137 14.3678 18.5819C14.9883 19.0477 15.2544 19.6454 15.3679 20.0928C14.8975 19.8596 14.2392 19.4528 13.6826 18.8095ZM17.1176 17.8315C15.6165 17.8315 14.089 17.1809 13.1804 16.7098C14.1073 16.4733 15.6072 16.1638 17.1176 16.1638C18.6406 16.1638 19.9968 16.6475 20.7797 16.9981C19.9984 17.3487 18.6455 17.8315 17.1176 17.8315Z" fill="#959595"/>
</svg>
