<svg width="24" height="24" viewBox="0 0 24 24" fill="none" xmlns="http://www.w3.org/2000/svg">
<path d="M21.725 20.312L18.015 16.632C19.4551 14.8364 20.1525 12.5573 19.9639 10.2633C19.7752 7.9693 18.7147 5.83478 17.0006 4.29864C15.2864 2.76251 13.0488 1.94151 10.748 2.00447C8.44708 2.06743 6.25776 3.00956 4.63018 4.63714C3.0026 6.26472 2.06047 8.45404 1.99751 10.7549C1.93455 13.0558 2.75555 15.2934 4.29169 17.0075C5.82782 18.7217 7.96234 19.7821 10.2563 19.9708C12.5503 20.1595 14.8295 19.4621 16.625 18.022L20.305 21.702C20.3952 21.7999 20.5041 21.8787 20.6253 21.9337C20.7464 21.9887 20.8774 22.0188 21.0105 22.0222C21.1435 22.0257 21.2759 22.0024 21.3997 21.9537C21.5236 21.905 21.6364 21.832 21.7315 21.7389C21.8266 21.6458 21.902 21.5346 21.9533 21.4118C22.0046 21.289 22.0307 21.1572 22.0301 21.0241C22.0295 20.891 22.0022 20.7594 21.9498 20.6371C21.8974 20.5148 21.821 20.4042 21.725 20.312ZM11.015 18.022C9.63057 18.022 8.27719 17.6115 7.12605 16.8423C5.97491 16.0731 5.0777 14.9799 4.54788 13.7008C4.01807 12.4217 3.87945 11.0142 4.14954 9.65637C4.41964 8.2985 5.08633 7.05122 6.06529 6.07225C7.04426 5.09328 8.29154 4.4266 9.64941 4.1565C11.0073 3.88641 12.4147 4.02503 13.6938 4.55484C14.9729 5.08466 16.0662 5.98186 16.8353 7.13301C17.6045 8.28415 18.015 9.63753 18.015 11.022C18.015 12.8785 17.2775 14.659 15.9648 15.9717C14.652 17.2845 12.8716 18.022 11.015 18.022Z" fill="#959595"/>
</svg>
