<svg width="23" height="10" viewBox="0 0 23 10" fill="none" xmlns="http://www.w3.org/2000/svg">
<path d="M4.26689 9.02576H2.00465V3.08989H0V0.962161H6.26034V3.08989H4.26689V9.02576Z" fill="#84D52C"/>
<path d="M4.26689 9.02576H2.00465V3.08989H0V0.962161H6.26034V3.08989H4.26689V9.02576Z" fill="url(#paint0_linear_1_720)" fill-opacity="0.2"/>
<path d="M14.2647 9.02576H12.0025V5.94298H9.32585V9.02576H7.06362V0.962161H9.32585V3.81525H12.0025V0.962161H14.2647V9.02576Z" fill="#84D52C"/>
<path d="M14.2647 9.02576H12.0025V5.94298H9.32585V9.02576H7.06362V0.962161H9.32585V3.81525H12.0025V0.962161H14.2647V9.02576Z" fill="url(#paint1_linear_1_720)" fill-opacity="0.2"/>
<path d="M19.1809 9.17084C18.0012 9.17084 17.0194 8.78398 16.2355 8.01026C15.459 7.22848 15.0708 6.22506 15.0708 5.00001C15.0708 3.76689 15.459 2.76348 16.2355 1.98976C17.012 1.21604 17.9938 0.829178 19.1809 0.829178C20.0768 0.829178 20.7973 1.05485 21.3423 1.50618C21.8948 1.95752 22.3054 2.51363 22.5742 3.17451L20.6256 4.15375C20.5285 3.83137 20.3456 3.55734 20.0768 3.33168C19.808 3.09795 19.5094 2.98108 19.1809 2.98108C18.6433 2.98108 18.2065 3.17451 17.8706 3.56137C17.5346 3.94823 17.3666 4.42778 17.3666 5.00001C17.3666 5.57224 17.5346 6.05178 17.8706 6.43864C18.2065 6.8255 18.6433 7.01893 19.1809 7.01893C19.5094 7.01893 19.808 6.9061 20.0768 6.68043C20.3456 6.4467 20.5285 6.16864 20.6256 5.84626L22.5742 6.81341C22.4548 7.11161 22.3054 7.38967 22.1263 7.64758C21.9471 7.89742 21.7231 8.14324 21.4543 8.38503C21.1855 8.62681 20.8533 8.82024 20.4576 8.96532C20.0693 9.10233 19.6438 9.17084 19.1809 9.17084Z" fill="#84D52C"/>
<path d="M19.1809 9.17084C18.0012 9.17084 17.0194 8.78398 16.2355 8.01026C15.459 7.22848 15.0708 6.22506 15.0708 5.00001C15.0708 3.76689 15.459 2.76348 16.2355 1.98976C17.012 1.21604 17.9938 0.829178 19.1809 0.829178C20.0768 0.829178 20.7973 1.05485 21.3423 1.50618C21.8948 1.95752 22.3054 2.51363 22.5742 3.17451L20.6256 4.15375C20.5285 3.83137 20.3456 3.55734 20.0768 3.33168C19.808 3.09795 19.5094 2.98108 19.1809 2.98108C18.6433 2.98108 18.2065 3.17451 17.8706 3.56137C17.5346 3.94823 17.3666 4.42778 17.3666 5.00001C17.3666 5.57224 17.5346 6.05178 17.8706 6.43864C18.2065 6.8255 18.6433 7.01893 19.1809 7.01893C19.5094 7.01893 19.808 6.9061 20.0768 6.68043C20.3456 6.4467 20.5285 6.16864 20.6256 5.84626L22.5742 6.81341C22.4548 7.11161 22.3054 7.38967 22.1263 7.64758C21.9471 7.89742 21.7231 8.14324 21.4543 8.38503C21.1855 8.62681 20.8533 8.82024 20.4576 8.96532C20.0693 9.10233 19.6438 9.17084 19.1809 9.17084Z" fill="url(#paint2_linear_1_720)" fill-opacity="0.2"/>
<defs>
<linearGradient id="paint0_linear_1_720" x1="22.5742" y1="0.829179" x2="0.620651" y2="4.4051" gradientUnits="userSpaceOnUse">
<stop stop-color="#6BAB2B"/>
<stop offset="1" stop-color="#84D52C" stop-opacity="0"/>
</linearGradient>
<linearGradient id="paint1_linear_1_720" x1="22.5742" y1="0.829179" x2="0.620651" y2="4.4051" gradientUnits="userSpaceOnUse">
<stop stop-color="#6BAB2B"/>
<stop offset="1" stop-color="#84D52C" stop-opacity="0"/>
</linearGradient>
<linearGradient id="paint2_linear_1_720" x1="22.5742" y1="0.829179" x2="0.620651" y2="4.4051" gradientUnits="userSpaceOnUse">
<stop stop-color="#6BAB2B"/>
<stop offset="1" stop-color="#84D52C" stop-opacity="0"/>
</linearGradient>
</defs>
</svg>
