<svg width="0" height="0" style="position:absolute"><symbol fill="none" viewBox="0 0 24 25" id="arrow" xmlns="http://www.w3.org/2000/svg"><path d="M15.667 5.5c0 .742.672 1.85 1.352 2.78.874 1.2 1.92 2.247 3.117 3.046.899.6 1.988 1.174 2.864 1.174m0 0c-.876 0-1.966.575-2.864 1.174-1.198.8-2.243 1.847-3.117 3.045-.68.931-1.352 2.041-1.352 2.781m7.333-7H1" stroke="#fff" stroke-width="2"/></symbol><symbol fill="none" viewBox="0 0 16 16" id="badge-close" xmlns="http://www.w3.org/2000/svg"><path d="M8.075 14.71a6.825 6.825 0 1 0 0-13.65 6.825 6.825 0 0 0 0 13.65Z" fill="#58AA46" fill-opacity=".9"/><path d="M10.25 5.56 8 7.81m0 0-2.25 2.25M8 7.81 5.75 5.56M8 7.81l2.25 2.25m4.65-2.176a6.825 6.825 0 1 1-13.65 0 6.825 6.825 0 0 1 13.65 0Z" stroke="#fff" stroke-linecap="round"/></symbol><symbol fill="none" viewBox="0 0 24 24" id="quality" xmlns="http://www.w3.org/2000/svg"><path d="M21.918 16.641c-.088-.053-2.182-1.311-4.8-1.311-.27 0-.537.01-.802.027.614-.334 1.233-.72 1.806-1.168 2.765-2.16 3.927-5.67 3.975-5.818a.418.418 0 0 0-.078-.398.427.427 0 0 0-.38-.143c-.12.018-2.954.464-5.55 2.824a17.912 17.912 0 0 0-1.894 2.042c.248-.965.423-2.048.423-3.203 0-3.993-2.064-7.183-2.152-7.316-.154-.235-.543-.235-.697 0-.088.133-2.151 3.323-2.151 7.316 0 1.155.175 2.238.422 3.203a17.907 17.907 0 0 0-1.894-2.042c-2.595-2.36-5.43-2.806-5.55-2.824a.43.43 0 0 0-.38.143.418.418 0 0 0-.078.398c.048.148 1.21 3.658 3.975 5.818.573.448 1.192.834 1.806 1.168a13.113 13.113 0 0 0-.801-.027c-2.618 0-4.713 1.258-4.8 1.311a.418.418 0 0 0 .002.714c.089.053 2.212 1.31 4.798 1.31.576 0 1.145-.082 1.685-.208a3.653 3.653 0 0 0-.852 2.31.418.418 0 0 0 .535.383c.063-.019 1.554-.474 2.697-1.795.204-.237.37-.471.518-.702v2.93a.417.417 0 1 0 .833 0v-2.93c.149.23.314.465.519.702 1.142 1.321 2.633 1.776 2.696 1.795a.423.423 0 0 0 .36-.06.418.418 0 0 0 .175-.322 3.652 3.652 0 0 0-.855-2.315 7.385 7.385 0 0 0 1.689.212c2.618 0 4.712-1.258 4.8-1.311a.418.418 0 0 0 0-.713Zm-5.268-5.37a11.233 11.233 0 0 1 4.375-2.44c-.474 1.108-1.571 3.26-3.416 4.701-1.528 1.194-3.463 1.96-4.61 2.346.681-1.128 1.995-3.1 3.651-4.607ZM6.626 13.532c-1.84-1.438-2.94-3.592-3.415-4.701a11.23 11.23 0 0 1 4.374 2.44c1.655 1.505 2.969 3.478 3.65 4.607-1.147-.386-3.081-1.153-4.609-2.346Zm.492 4.3c-1.506 0-2.869-.485-3.658-.837.781-.35 2.132-.831 3.658-.831 1.51 0 3.015.31 3.942.548-.901.47-2.421 1.12-3.942 1.12Zm3.435.977a5.46 5.46 0 0 1-1.684 1.281c.115-.447.381-1.045.998-1.508.626-.47 1.133-.82 1.519-1.073a5.382 5.382 0 0 1-.833 1.3Zm1.638-3.207-.073.124-.074-.124c-.59-1.137-1.593-3.454-1.593-6.109 0-2.762 1.09-5.171 1.667-6.253.576 1.082 1.666 3.491 1.666 6.253 0 2.655-1.003 4.972-1.593 6.11Zm1.492 3.207a5.359 5.359 0 0 1-.83-1.297c.385.252.89.602 1.515 1.07.62.466.886 1.063 1 1.51a5.442 5.442 0 0 1-1.685-1.282Zm3.435-.978c-1.501 0-3.029-.65-3.938-1.121.927-.237 2.427-.546 3.938-.546 1.523 0 2.879.483 3.662.834-.782.35-2.135.833-3.662.833Z" fill="#959595"/></symbol><symbol fill="none" viewBox="0 0 24 24" id="search" xmlns="http://www.w3.org/2000/svg"><path d="m21.725 20.312-3.71-3.68a9 9 0 1 0-1.39 1.39l3.68 3.68a.994.994 0 1 0 1.42-1.39Zm-10.71-2.29a7 7 0 1 1 0-14 7 7 0 0 1 0 14Z" fill="#959595"/></symbol></svg>