<svg width="0" height="0" style="position:absolute"><symbol fill="none" viewBox="0 0 24 25" id="arrow" xmlns="http://www.w3.org/2000/svg"><path d="M15.667 5.5c0 .742.672 1.85 1.352 2.78.874 1.2 1.92 2.247 3.117 3.046.899.6 1.988 1.174 2.864 1.174m0 0c-.876 0-1.966.575-2.864 1.174-1.198.8-2.243 1.847-3.117 3.045-.68.931-1.352 2.041-1.352 2.781m7.333-7H1" stroke="#fff" stroke-width="2"/></symbol><symbol fill="none" viewBox="0 0 16 16" id="badge-close" xmlns="http://www.w3.org/2000/svg"><path d="M8.075 14.71a6.825 6.825 0 1 0 0-13.65 6.825 6.825 0 0 0 0 13.65Z" fill="#58AA46" fill-opacity=".9"/><path d="M10.25 5.56 8 7.81m0 0-2.25 2.25M8 7.81 5.75 5.56M8 7.81l2.25 2.25m4.65-2.176a6.825 6.825 0 1 1-13.65 0 6.825 6.825 0 0 1 13.65 0Z" stroke="#fff" stroke-linecap="round"/></symbol><symbol fill="none" viewBox="0 0 24 24" id="search" xmlns="http://www.w3.org/2000/svg"><path d="m21.725 20.312-3.71-3.68a9 9 0 1 0-1.39 1.39l3.68 3.68a.994.994 0 1 0 1.42-1.39Zm-10.71-2.29a7 7 0 1 1 0-14 7 7 0 0 1 0 14Z" fill="#959595"/></symbol></svg>