<svg width="0" height="0" style="position:absolute"><symbol fill="none" viewBox="0 0 24 25" id="arrow" xmlns="http://www.w3.org/2000/svg"><path d="M15.667 5.5c0 .742.672 1.85 1.352 2.78.874 1.2 1.92 2.247 3.117 3.046.899.6 1.988 1.174 2.864 1.174m0 0c-.876 0-1.966.575-2.864 1.174-1.198.8-2.243 1.847-3.117 3.045-.68.931-1.352 2.041-1.352 2.781m7.333-7H1" stroke="#fff" stroke-width="2"/></symbol><symbol fill="none" viewBox="0 0 24 24" id="arrow-down" xmlns="http://www.w3.org/2000/svg"><path d="M13 4v12.175l5.6-5.6L20 12l-8 8-8-8 1.4-1.425 5.6 5.6V4h2Z" fill="#84D52C"/><path d="M13 4v12.175l5.6-5.6L20 12l-8 8-8-8 1.4-1.425 5.6 5.6V4h2Z" fill="url(#aa)" fill-opacity=".2"/><defs><linearGradient id="aa" x1="4" y1="20" x2="19.915" y2="19.042" gradientUnits="userSpaceOnUse"><stop stop-color="#6BAB2B"/><stop offset="1" stop-color="#84D52C" stop-opacity="0"/></linearGradient></defs></symbol><symbol fill="none" viewBox="0 0 24 24" id="arrow-top" xmlns="http://www.w3.org/2000/svg"><path d="M11 20V7.825l-5.6 5.6L4 12l8-8 8 8-1.4 1.425-5.6-5.6V20h-2Z" fill="#84D52C"/><path d="M11 20V7.825l-5.6 5.6L4 12l8-8 8 8-1.4 1.425-5.6-5.6V20h-2Z" fill="url(#ba)" fill-opacity=".2"/><defs><linearGradient id="ba" x1="20" y1="4" x2="4.085" y2="4.958" gradientUnits="userSpaceOnUse"><stop stop-color="#6BAB2B"/><stop offset="1" stop-color="#84D52C" stop-opacity="0"/></linearGradient></defs></symbol><symbol fill="none" viewBox="0 0 16 16" id="badge-close" xmlns="http://www.w3.org/2000/svg"><path d="M8.075 14.71a6.825 6.825 0 1 0 0-13.65 6.825 6.825 0 0 0 0 13.65Z" fill="#58AA46" fill-opacity=".9"/><path d="M10.25 5.56 8 7.81m0 0-2.25 2.25M8 7.81 5.75 5.56M8 7.81l2.25 2.25m4.65-2.176a6.825 6.825 0 1 1-13.65 0 6.825 6.825 0 0 1 13.65 0Z" stroke="#fff" stroke-linecap="round"/></symbol><symbol fill="none" viewBox="0 0 24 24" id="calendar" xmlns="http://www.w3.org/2000/svg"><g clip-path="url(#ea)"><path d="M5.25.5a.25.25 0 0 1 .25.25V2h13V.75a.25.25 0 1 1 .5 0V2h2a2.5 2.5 0 0 1 2.5 2.5V21a2.5 2.5 0 0 1-2.5 2.5H3A2.5 2.5 0 0 1 .5 21V4.5A2.5 2.5 0 0 1 3 2h2V.75A.25.25 0 0 1 5.25.5ZM3 2.5a2 2 0 0 0-2 2V21a2 2 0 0 0 2 2h18a2 2 0 0 0 2-2V4.5a2 2 0 0 0-2-2H3Z" stroke="#84D52C"/><path d="M5.25.5a.25.25 0 0 1 .25.25V2h13V.75a.25.25 0 1 1 .5 0V2h2a2.5 2.5 0 0 1 2.5 2.5V21a2.5 2.5 0 0 1-2.5 2.5H3A2.5 2.5 0 0 1 .5 21V4.5A2.5 2.5 0 0 1 3 2h2V.75A.25.25 0 0 1 5.25.5ZM3 2.5a2 2 0 0 0-2 2V21a2 2 0 0 0 2 2h18a2 2 0 0 0 2-2V4.5a2 2 0 0 0-2-2H3Z" stroke="url(#eb)" stroke-opacity=".2"/><path d="M3.75 6a.75.75 0 0 1 .75-.75h15a.75.75 0 0 1 .75.75v1.5a.75.75 0 0 1-.75.75h-15a.75.75 0 0 1-.75-.75V6Zm12.75 5.25a.75.75 0 0 1 .75-.75h1.5a.75.75 0 0 1 .75.75v1.5a.75.75 0 0 1-.75.75h-1.5a.75.75 0 0 1-.75-.75v-1.5Zm-4.5 0a.75.75 0 0 1 .75-.75h1.5a.75.75 0 0 1 .75.75v1.5a.75.75 0 0 1-.75.75h-1.5a.75.75 0 0 1-.75-.75v-1.5Zm-7.5 4.5a.75.75 0 0 1 .75-.75h1.5a.75.75 0 0 1 .75.75v1.5a.75.75 0 0 1-.75.75h-1.5a.75.75 0 0 1-.75-.75v-1.5Zm4.5 0a.75.75 0 0 1 .75-.75h1.5a.75.75 0 0 1 .75.75v1.5a.75.75 0 0 1-.75.75h-1.5a.75.75 0 0 1-.75-.75v-1.5Z" fill="#84D52C"/><path d="M3.75 6a.75.75 0 0 1 .75-.75h15a.75.75 0 0 1 .75.75v1.5a.75.75 0 0 1-.75.75h-15a.75.75 0 0 1-.75-.75V6Zm12.75 5.25a.75.75 0 0 1 .75-.75h1.5a.75.75 0 0 1 .75.75v1.5a.75.75 0 0 1-.75.75h-1.5a.75.75 0 0 1-.75-.75v-1.5Zm-4.5 0a.75.75 0 0 1 .75-.75h1.5a.75.75 0 0 1 .75.75v1.5a.75.75 0 0 1-.75.75h-1.5a.75.75 0 0 1-.75-.75v-1.5Zm-7.5 4.5a.75.75 0 0 1 .75-.75h1.5a.75.75 0 0 1 .75.75v1.5a.75.75 0 0 1-.75.75h-1.5a.75.75 0 0 1-.75-.75v-1.5Zm4.5 0a.75.75 0 0 1 .75-.75h1.5a.75.75 0 0 1 .75.75v1.5a.75.75 0 0 1-.75.75h-1.5a.75.75 0 0 1-.75-.75v-1.5Z" fill="url(#ec)" fill-opacity=".2"/></g><defs><linearGradient id="eb" x1="24" y1="0" x2=".127" y2="1.437" gradientUnits="userSpaceOnUse"><stop stop-color="#6BAB2B"/><stop offset="1" stop-color="#84D52C" stop-opacity="0"/></linearGradient><linearGradient id="ec" x1="20.25" y1="5.25" x2="3.877" y2="6.525" gradientUnits="userSpaceOnUse"><stop stop-color="#6BAB2B"/><stop offset="1" stop-color="#84D52C" stop-opacity="0"/></linearGradient><clipPath id="ea"><path fill="#fff" d="M0 0h24v24H0z"/></clipPath></defs></symbol><symbol fill="none" viewBox="0 0 22 8" id="cbd" xmlns="http://www.w3.org/2000/svg"><path d="M3.855 7.624c-1.107 0-2.027-.336-2.763-1.009C.364 5.936 0 5.065 0 4c0-1.071.364-1.943 1.092-2.615C1.821.712 2.742.376 3.855.376c.84 0 1.516.196 2.027.588.518.393.903.876 1.155 1.45l-1.827.85a1.47 1.47 0 0 0-.515-.713 1.307 1.307 0 0 0-.84-.305c-.504 0-.914.168-1.23.504-.314.336-.472.753-.472 1.25s.158.914.473 1.25c.315.336.725.504 1.229.504.308 0 .588-.098.84-.294a1.53 1.53 0 0 0 .515-.725l1.827.84c-.112.26-.252.501-.42.725-.168.217-.378.43-.63.641a2.9 2.9 0 0 1-.935.504 3.835 3.835 0 0 1-1.197.179Z" fill="#84D52C"/><path d="M3.855 7.624c-1.107 0-2.027-.336-2.763-1.009C.364 5.936 0 5.065 0 4c0-1.071.364-1.943 1.092-2.615C1.821.712 2.742.376 3.855.376c.84 0 1.516.196 2.027.588.518.393.903.876 1.155 1.45l-1.827.85a1.47 1.47 0 0 0-.515-.713 1.307 1.307 0 0 0-.84-.305c-.504 0-.914.168-1.23.504-.314.336-.472.753-.472 1.25s.158.914.473 1.25c.315.336.725.504 1.229.504.308 0 .588-.098.84-.294a1.53 1.53 0 0 0 .515-.725l1.827.84c-.112.26-.252.501-.42.725-.168.217-.378.43-.63.641a2.9 2.9 0 0 1-.935.504 3.835 3.835 0 0 1-1.197.179Z" fill="url(#fa)" fill-opacity=".2"/><path d="M12.103 7.498H7.702V.492h4.254c.672 0 1.187.182 1.544.546.357.364.536.777.536 1.24 0 .427-.112.784-.337 1.07a1.48 1.48 0 0 1-.86.536c.384.056.703.246.955.568.252.315.378.696.378 1.145 0 .525-.179.973-.536 1.344-.357.371-.868.557-1.533.557Zm-.64-4.422a.415.415 0 0 0 .42-.42.35.35 0 0 0-.127-.284.422.422 0 0 0-.294-.116H9.824v.82h1.638Zm.062 2.657c.154 0 .273-.038.357-.115a.423.423 0 0 0 .137-.326.411.411 0 0 0-.137-.315.483.483 0 0 0-.357-.137H9.824v.893h1.701Z" fill="#84D52C"/><path d="M12.103 7.498H7.702V.492h4.254c.672 0 1.187.182 1.544.546.357.364.536.777.536 1.24 0 .427-.112.784-.337 1.07a1.48 1.48 0 0 1-.86.536c.384.056.703.246.955.568.252.315.378.696.378 1.145 0 .525-.179.973-.536 1.344-.357.371-.868.557-1.533.557Zm-.64-4.422a.415.415 0 0 0 .42-.42.35.35 0 0 0-.127-.284.422.422 0 0 0-.294-.116H9.824v.82h1.638Zm.062 2.657c.154 0 .273-.038.357-.115a.423.423 0 0 0 .137-.326.411.411 0 0 0-.137-.315.483.483 0 0 0-.357-.137H9.824v.893h1.701Z" fill="url(#fb)" fill-opacity=".2"/><path d="M18.166 7.498h-3.14V.492h3.13c1.134 0 2.058.311 2.773.935.714.616 1.071 1.47 1.071 2.562 0 1.093-.357 1.95-1.071 2.574-.715.623-1.635.935-2.763.935Zm-.01-1.849c.51 0 .92-.161 1.229-.483.308-.322.462-.714.462-1.177 0-.497-.144-.896-.43-1.197-.288-.301-.705-.452-1.25-.452h-1.02V5.65h1.009Z" fill="#84D52C"/><path d="M18.166 7.498h-3.14V.492h3.13c1.134 0 2.058.311 2.773.935.714.616 1.071 1.47 1.071 2.562 0 1.093-.357 1.95-1.071 2.574-.715.623-1.635.935-2.763.935Zm-.01-1.849c.51 0 .92-.161 1.229-.483.308-.322.462-.714.462-1.177 0-.497-.144-.896-.43-1.197-.288-.301-.705-.452-1.25-.452h-1.02V5.65h1.009Z" fill="url(#fc)" fill-opacity=".2"/><defs><linearGradient id="fa" x1="22" y1=".376" x2=".747" y2="4.259" gradientUnits="userSpaceOnUse"><stop stop-color="#6BAB2B"/><stop offset="1" stop-color="#84D52C" stop-opacity="0"/></linearGradient><linearGradient id="fb" x1="22" y1=".376" x2=".747" y2="4.259" gradientUnits="userSpaceOnUse"><stop stop-color="#6BAB2B"/><stop offset="1" stop-color="#84D52C" stop-opacity="0"/></linearGradient><linearGradient id="fc" x1="22" y1=".376" x2=".747" y2="4.259" gradientUnits="userSpaceOnUse"><stop stop-color="#6BAB2B"/><stop offset="1" stop-color="#84D52C" stop-opacity="0"/></linearGradient></defs></symbol><symbol fill="none" viewBox="0 0 26 25" id="filter" xmlns="http://www.w3.org/2000/svg"><path fill-rule="evenodd" clip-rule="evenodd" d="M10.019 3.726h13.858a1 1 0 1 1 0 2H9.98c-.358 1.527-1.447 2.637-2.734 2.637S4.87 7.253 4.513 5.726h-2.39a1 1 0 0 1 0-2h2.35C4.784 2.106 5.908.905 7.246.905c1.339 0 2.462 1.2 2.773 2.821ZM2.122 12.25a1 1 0 1 0 0 2h11.524c.46 1.26 1.443 2.13 2.583 2.13 1.14 0 2.125-.87 2.584-2.13h5.064a1 1 0 1 0 0-2h-4.806c-.154-1.87-1.367-3.328-2.842-3.328-1.474 0-2.688 1.457-2.841 3.328H2.122ZM.94 21.175a1 1 0 0 1 1-1h7.453c.335-1.573 1.441-2.729 2.754-2.729s2.42 1.155 2.754 2.73h9.161a1 1 0 0 1 0 2h-9.16c-.336 1.574-1.442 2.729-2.755 2.729s-2.419-1.155-2.754-2.73H1.939a1 1 0 0 1-1-1Z" fill="#84D52C"/><path fill-rule="evenodd" clip-rule="evenodd" d="M10.019 3.726h13.858a1 1 0 1 1 0 2H9.98c-.358 1.527-1.447 2.637-2.734 2.637S4.87 7.253 4.513 5.726h-2.39a1 1 0 0 1 0-2h2.35C4.784 2.106 5.908.905 7.246.905c1.339 0 2.462 1.2 2.773 2.821ZM2.122 12.25a1 1 0 1 0 0 2h11.524c.46 1.26 1.443 2.13 2.583 2.13 1.14 0 2.125-.87 2.584-2.13h5.064a1 1 0 1 0 0-2h-4.806c-.154-1.87-1.367-3.328-2.842-3.328-1.474 0-2.688 1.457-2.841 3.328H2.122ZM.94 21.175a1 1 0 0 1 1-1h7.453c.335-1.573 1.441-2.729 2.754-2.729s2.42 1.155 2.754 2.73h9.161a1 1 0 0 1 0 2h-9.16c-.336 1.574-1.442 2.729-2.755 2.729s-2.419-1.155-2.754-2.73H1.939a1 1 0 0 1-1-1Z" fill="url(#ga)" fill-opacity=".2"/><defs><linearGradient id="ga" x1="25.061" y1=".905" x2="1.068" y2="2.356" gradientUnits="userSpaceOnUse"><stop stop-color="#6BAB2B"/><stop offset="1" stop-color="#84D52C" stop-opacity="0"/></linearGradient></defs></symbol><symbol fill="none" viewBox="0 0 60 58" id="high" xmlns="http://www.w3.org/2000/svg"><g filter="url(#ha)"><path d="m25.996 21.695 2.755-2.52 1.446.798 3.358-4.128m-2.183-.09 2.504.103m-.088 2.083-.388-2.523" stroke="#7ACB22" stroke-width="1.069" shape-rendering="crispEdges"/></g><defs><filter id="ha" x=".635" y=".221" width="58.681" height="56.868" filterUnits="userSpaceOnUse" color-interpolation-filters="sRGB"><feFlood flood-opacity="0" result="BackgroundImageFix"/><feColorMatrix in="SourceAlpha" values="0 0 0 0 0 0 0 0 0 0 0 0 0 0 0 0 0 0 127 0" result="hardAlpha"/><feOffset dy="10"/><feGaussianBlur stdDeviation="12.5"/><feComposite in2="hardAlpha" operator="out"/><feColorMatrix values="0 0 0 0 0.0588235 0 0 0 0 0.0588235 0 0 0 0 0.0901961 0 0 0 0.35 0"/><feBlend in2="BackgroundImageFix" result="effect1_dropShadow_1_722"/><feBlend in="SourceGraphic" in2="effect1_dropShadow_1_722" result="shape"/><feColorMatrix in="SourceAlpha" values="0 0 0 0 0 0 0 0 0 0 0 0 0 0 0 0 0 0 127 0" result="hardAlpha"/><feOffset dx="5" dy="10"/><feGaussianBlur stdDeviation="7.5"/><feComposite in2="hardAlpha" operator="arithmetic" k2="-1" k3="1"/><feColorMatrix values="0 0 0 0 1 0 0 0 0 1 0 0 0 0 1 0 0 0 0.5 0"/><feBlend in2="shape" result="effect2_innerShadow_1_722"/></filter></defs></symbol><symbol fill="none" viewBox="0 0 26 27" id="low" xmlns="http://www.w3.org/2000/svg"><g filter="url(#ia)"><path d="m9.816 7.865 2.404 2.57-.805 1.311 3.961 3.152m.129-2-.148 2.294m-2.03-.119 2.468-.31" stroke="#FF6D59" stroke-width="1.069" shape-rendering="crispEdges"/></g><defs><filter id="ia" x=".404" y=".512" width="24.646" height="26.079" filterUnits="userSpaceOnUse" color-interpolation-filters="sRGB"><feFlood flood-opacity="0" result="BackgroundImageFix"/><feColorMatrix in="SourceAlpha" values="0 0 0 0 0 0 0 0 0 0 0 0 0 0 0 0 0 0 127 0" result="hardAlpha"/><feOffset dy="2"/><feGaussianBlur stdDeviation="4.5"/><feComposite in2="hardAlpha" operator="out"/><feColorMatrix values="0 0 0 0 0.829167 0 0 0 0 0.148559 0 0 0 0 0.148559 0 0 0 1 0"/><feBlend in2="BackgroundImageFix" result="effect1_dropShadow_1_726"/><feBlend in="SourceGraphic" in2="effect1_dropShadow_1_726" result="shape"/></filter></defs></symbol><symbol fill="none" viewBox="0 0 24 24" id="quality" xmlns="http://www.w3.org/2000/svg"><path d="M21.918 16.641c-.088-.053-2.182-1.311-4.8-1.311-.27 0-.537.01-.802.027.614-.334 1.233-.72 1.806-1.168 2.765-2.16 3.927-5.67 3.975-5.818a.418.418 0 0 0-.078-.398.427.427 0 0 0-.38-.143c-.12.018-2.954.464-5.55 2.824a17.912 17.912 0 0 0-1.894 2.042c.248-.965.423-2.048.423-3.203 0-3.993-2.064-7.183-2.152-7.316-.154-.235-.543-.235-.697 0-.088.133-2.151 3.323-2.151 7.316 0 1.155.175 2.238.422 3.203a17.907 17.907 0 0 0-1.894-2.042c-2.595-2.36-5.43-2.806-5.55-2.824a.43.43 0 0 0-.38.143.418.418 0 0 0-.078.398c.048.148 1.21 3.658 3.975 5.818.573.448 1.192.834 1.806 1.168a13.113 13.113 0 0 0-.801-.027c-2.618 0-4.713 1.258-4.8 1.311a.418.418 0 0 0 .002.714c.089.053 2.212 1.31 4.798 1.31.576 0 1.145-.082 1.685-.208a3.653 3.653 0 0 0-.852 2.31.418.418 0 0 0 .535.383c.063-.019 1.554-.474 2.697-1.795.204-.237.37-.471.518-.702v2.93a.417.417 0 1 0 .833 0v-2.93c.149.23.314.465.519.702 1.142 1.321 2.633 1.776 2.696 1.795a.423.423 0 0 0 .36-.06.418.418 0 0 0 .175-.322 3.652 3.652 0 0 0-.855-2.315 7.385 7.385 0 0 0 1.689.212c2.618 0 4.712-1.258 4.8-1.311a.418.418 0 0 0 0-.713Zm-5.268-5.37a11.233 11.233 0 0 1 4.375-2.44c-.474 1.108-1.571 3.26-3.416 4.701-1.528 1.194-3.463 1.96-4.61 2.346.681-1.128 1.995-3.1 3.651-4.607ZM6.626 13.532c-1.84-1.438-2.94-3.592-3.415-4.701a11.23 11.23 0 0 1 4.374 2.44c1.655 1.505 2.969 3.478 3.65 4.607-1.147-.386-3.081-1.153-4.609-2.346Zm.492 4.3c-1.506 0-2.869-.485-3.658-.837.781-.35 2.132-.831 3.658-.831 1.51 0 3.015.31 3.942.548-.901.47-2.421 1.12-3.942 1.12Zm3.435.977a5.46 5.46 0 0 1-1.684 1.281c.115-.447.381-1.045.998-1.508.626-.47 1.133-.82 1.519-1.073a5.382 5.382 0 0 1-.833 1.3Zm1.638-3.207-.073.124-.074-.124c-.59-1.137-1.593-3.454-1.593-6.109 0-2.762 1.09-5.171 1.667-6.253.576 1.082 1.666 3.491 1.666 6.253 0 2.655-1.003 4.972-1.593 6.11Zm1.492 3.207a5.359 5.359 0 0 1-.83-1.297c.385.252.89.602 1.515 1.07.62.466.886 1.063 1 1.51a5.442 5.442 0 0 1-1.685-1.282Zm3.435-.978c-1.501 0-3.029-.65-3.938-1.121.927-.237 2.427-.546 3.938-.546 1.523 0 2.879.483 3.662.834-.782.35-2.135.833-3.662.833Z" fill="#959595"/></symbol><symbol fill="none" viewBox="0 0 24 24" id="search" xmlns="http://www.w3.org/2000/svg"><path d="m21.725 20.312-3.71-3.68a9 9 0 1 0-1.39 1.39l3.68 3.68a.994.994 0 1 0 1.42-1.39Zm-10.71-2.29a7 7 0 1 1 0-14 7 7 0 0 1 0 14Z" fill="#959595"/></symbol><symbol fill="none" viewBox="0 0 23 10" id="thc" xmlns="http://www.w3.org/2000/svg"><path d="M4.267 9.026H2.005V3.09H0V.962h6.26V3.09H4.267v5.936Z" fill="#84D52C"/><path d="M4.267 9.026H2.005V3.09H0V.962h6.26V3.09H4.267v5.936Z" fill="url(#la)" fill-opacity=".2"/><path d="M14.265 9.026h-2.263V5.943H9.326v3.083H7.064V.962h2.262v2.853h2.676V.962h2.263v8.064Z" fill="#84D52C"/><path d="M14.265 9.026h-2.263V5.943H9.326v3.083H7.064V.962h2.262v2.853h2.676V.962h2.263v8.064Z" fill="url(#lb)" fill-opacity=".2"/><path d="M19.18 9.17c-1.179 0-2.16-.386-2.945-1.16-.776-.782-1.164-1.785-1.164-3.01 0-1.233.388-2.237 1.164-3.01.777-.774 1.759-1.16 2.946-1.16.896 0 1.616.225 2.161.676a4.13 4.13 0 0 1 1.232 1.669l-1.948.979a1.694 1.694 0 0 0-.55-.822 1.333 1.333 0 0 0-.895-.35c-.538 0-.975.193-1.31.58-.336.386-.504.866-.504 1.438s.168 1.052.504 1.439c.335.386.772.58 1.31.58.328 0 .627-.113.896-.339.269-.233.451-.511.549-.834l1.948.967c-.12.299-.269.577-.448.835-.179.25-.403.495-.672.737a3.03 3.03 0 0 1-.996.58 3.813 3.813 0 0 1-1.277.206Z" fill="#84D52C"/><path d="M19.18 9.17c-1.179 0-2.16-.386-2.945-1.16-.776-.782-1.164-1.785-1.164-3.01 0-1.233.388-2.237 1.164-3.01.777-.774 1.759-1.16 2.946-1.16.896 0 1.616.225 2.161.676a4.13 4.13 0 0 1 1.232 1.669l-1.948.979a1.694 1.694 0 0 0-.55-.822 1.333 1.333 0 0 0-.895-.35c-.538 0-.975.193-1.31.58-.336.386-.504.866-.504 1.438s.168 1.052.504 1.439c.335.386.772.58 1.31.58.328 0 .627-.113.896-.339.269-.233.451-.511.549-.834l1.948.967c-.12.299-.269.577-.448.835-.179.25-.403.495-.672.737a3.03 3.03 0 0 1-.996.58 3.813 3.813 0 0 1-1.277.206Z" fill="url(#lc)" fill-opacity=".2"/><defs><linearGradient id="la" x1="22.574" y1=".829" x2=".621" y2="4.405" gradientUnits="userSpaceOnUse"><stop stop-color="#6BAB2B"/><stop offset="1" stop-color="#84D52C" stop-opacity="0"/></linearGradient><linearGradient id="lb" x1="22.574" y1=".829" x2=".621" y2="4.405" gradientUnits="userSpaceOnUse"><stop stop-color="#6BAB2B"/><stop offset="1" stop-color="#84D52C" stop-opacity="0"/></linearGradient><linearGradient id="lc" x1="22.574" y1=".829" x2=".621" y2="4.405" gradientUnits="userSpaceOnUse"><stop stop-color="#6BAB2B"/><stop offset="1" stop-color="#84D52C" stop-opacity="0"/></linearGradient></defs></symbol></svg>