<svg width="170" height="26" viewBox="0 0 170 26" fill="none" xmlns="http://www.w3.org/2000/svg">
<path d="M22.67 20H18.38V5.99L12.74 20H10.88L5.24 5.99V20H0.98V-0.0100017H6.95L11.81 12.08L16.67 -0.0100017H22.67V20ZM39.3641 20H35.5541V18.5C34.5141 19.74 32.9841 20.36 30.9641 20.36C29.6641 20.36 28.4941 19.94 27.4541 19.1C26.4341 18.24 25.9241 17.06 25.9241 15.56C25.9241 14 26.4241 12.83 27.4241 12.05C28.4441 11.27 29.6241 10.88 30.9641 10.88C33.0241 10.88 34.5541 11.47 35.5541 12.65V10.7C35.5541 9.96 35.2641 9.37 34.6841 8.93C34.1041 8.49 33.3341 8.27 32.3741 8.27C30.7941 8.27 29.3841 8.84 28.1441 9.98L26.7041 7.43C28.4241 5.91 30.5341 5.15 33.0341 5.15C34.8941 5.15 36.4141 5.58 37.5941 6.44C38.7741 7.3 39.3641 8.7 39.3641 10.64V20ZM32.4941 17.78C33.9141 17.78 34.9341 17.36 35.5541 16.52V14.72C34.9341 13.88 33.9141 13.46 32.4941 13.46C31.7141 13.46 31.0641 13.66 30.5441 14.06C30.0241 14.44 29.7641 14.97 29.7641 15.65C29.7641 16.31 30.0241 16.83 30.5441 17.21C31.0641 17.59 31.7141 17.78 32.4941 17.78ZM47.2531 20H43.4431V5.51H47.2531V7.49C47.7931 6.81 48.4831 6.25 49.3231 5.81C50.1631 5.37 51.0131 5.15 51.8731 5.15V8.87C51.6131 8.81 51.2631 8.78 50.8231 8.78C50.1831 8.78 49.5031 8.94 48.7831 9.26C48.0631 9.58 47.5531 9.97 47.2531 10.43V20ZM68.7137 20H63.9437L60.1037 14.42L58.3637 16.28V20H54.5537V-0.0100017H58.3637V11.96L63.8537 5.51H68.5337L62.8037 12.08L68.7137 20ZM77.5426 20.36C75.3026 20.36 73.4526 19.66 71.9926 18.26C70.5326 16.86 69.8026 15.02 69.8026 12.74C69.8026 10.6 70.5026 8.8 71.9026 7.34C73.3226 5.88 75.1226 5.15 77.3026 5.15C79.4626 5.15 81.2126 5.89 82.5526 7.37C83.8926 8.83 84.5626 10.75 84.5626 13.13V13.97H73.7926C73.9126 14.93 74.3426 15.73 75.0826 16.37C75.8226 17.01 76.7826 17.33 77.9626 17.33C78.6026 17.33 79.2926 17.2 80.0326 16.94C80.7926 16.68 81.3926 16.33 81.8326 15.89L83.5126 18.35C82.0526 19.69 80.0626 20.36 77.5426 20.36ZM80.8726 11.39C80.8126 10.57 80.4826 9.83 79.8826 9.17C79.3026 8.51 78.4426 8.18 77.3026 8.18C76.2226 8.18 75.3826 8.51 74.7826 9.17C74.1826 9.81 73.8326 10.55 73.7326 11.39H80.8726ZM92.4746 20.36C91.1346 20.36 90.1146 20.02 89.4146 19.34C88.7146 18.66 88.3646 17.68 88.3646 16.4V8.84H85.9646V5.51H88.3646V1.55H92.2046V5.51H95.1446V8.84H92.2046V15.38C92.2046 15.84 92.3246 16.22 92.5646 16.52C92.8046 16.82 93.1246 16.97 93.5246 16.97C94.1246 16.97 94.5646 16.83 94.8446 16.55L95.6546 19.43C94.9546 20.05 93.8946 20.36 92.4746 20.36ZM106.331 20.36C104.511 20.36 103.021 19.62 101.861 18.14V25.52H98.0513V5.51H101.861V7.34C103.001 5.88 104.491 5.15 106.331 5.15C108.231 5.15 109.771 5.83 110.951 7.19C112.151 8.53 112.751 10.38 112.751 12.74C112.751 15.1 112.151 16.96 110.951 18.32C109.771 19.68 108.231 20.36 106.331 20.36ZM105.131 16.97C106.231 16.97 107.111 16.58 107.771 15.8C108.451 15.02 108.791 14 108.791 12.74C108.791 11.5 108.451 10.49 107.771 9.71C107.111 8.93 106.231 8.54 105.131 8.54C104.511 8.54 103.891 8.7 103.271 9.02C102.651 9.34 102.181 9.73 101.861 10.19V15.32C102.181 15.78 102.651 16.17 103.271 16.49C103.911 16.81 104.531 16.97 105.131 16.97ZM119.652 20H115.842V-0.0100017H119.652V20ZM136.239 20H132.429V18.5C131.389 19.74 129.859 20.36 127.839 20.36C126.539 20.36 125.369 19.94 124.329 19.1C123.309 18.24 122.799 17.06 122.799 15.56C122.799 14 123.299 12.83 124.299 12.05C125.319 11.27 126.499 10.88 127.839 10.88C129.899 10.88 131.429 11.47 132.429 12.65V10.7C132.429 9.96 132.139 9.37 131.559 8.93C130.979 8.49 130.209 8.27 129.249 8.27C127.669 8.27 126.259 8.84 125.019 9.98L123.579 7.43C125.299 5.91 127.409 5.15 129.909 5.15C131.769 5.15 133.289 5.58 134.469 6.44C135.649 7.3 136.239 8.7 136.239 10.64V20ZM129.369 17.78C130.789 17.78 131.809 17.36 132.429 16.52V14.72C131.809 13.88 130.789 13.46 129.369 13.46C128.589 13.46 127.939 13.66 127.419 14.06C126.899 14.44 126.639 14.97 126.639 15.65C126.639 16.31 126.899 16.83 127.419 17.21C127.939 17.59 128.589 17.78 129.369 17.78ZM147.069 20.36C144.829 20.36 142.989 19.65 141.549 18.23C140.109 16.81 139.389 14.98 139.389 12.74C139.389 10.52 140.109 8.7 141.549 7.28C142.989 5.86 144.829 5.15 147.069 5.15C149.629 5.15 151.539 6.02 152.799 7.76L150.309 10.1C149.609 9.06 148.589 8.54 147.249 8.54C146.089 8.54 145.139 8.93 144.399 9.71C143.679 10.47 143.319 11.48 143.319 12.74C143.319 14 143.679 15.02 144.399 15.8C145.139 16.58 146.089 16.97 147.249 16.97C148.549 16.97 149.569 16.45 150.309 15.41L152.799 17.72C151.539 19.48 149.629 20.36 147.069 20.36ZM162.399 20.36C160.159 20.36 158.309 19.66 156.849 18.26C155.389 16.86 154.659 15.02 154.659 12.74C154.659 10.6 155.359 8.8 156.759 7.34C158.179 5.88 159.979 5.15 162.159 5.15C164.319 5.15 166.069 5.89 167.409 7.37C168.749 8.83 169.419 10.75 169.419 13.13V13.97H158.649C158.769 14.93 159.199 15.73 159.939 16.37C160.679 17.01 161.639 17.33 162.819 17.33C163.459 17.33 164.149 17.2 164.889 16.94C165.649 16.68 166.249 16.33 166.689 15.89L168.369 18.35C166.909 19.69 164.919 20.36 162.399 20.36ZM165.729 11.39C165.669 10.57 165.339 9.83 164.739 9.17C164.159 8.51 163.299 8.18 162.159 8.18C161.079 8.18 160.239 8.51 159.639 9.17C159.039 9.81 158.689 10.55 158.589 11.39H165.729Z" fill="white"/>
</svg>
